<?xml version="1.0" encoding="UTF-8"?>
<svg width="48px" height="48px" viewBox="0 0 48 48" version="1.1" xmlns="http://www.w3.org/2000/svg" xmlns:xlink="http://www.w3.org/1999/xlink">
    <title>C9CA6099-0D62-4721-A3C7-82466015F7B3</title>
    <g id="Footer-2022" stroke="none" stroke-width="1" fill="none" fill-rule="evenodd">
        <g id="Footer---app-icons-desktop" transform="translate(-175, -161)" fill-rule="nonzero">
            <g id="Apps-" transform="translate(150, 116)">
                <g id="Bundesliga-App-Icon" transform="translate(25, 45)">
                    <g id="background" fill="#D20515">
                        <rect id="base" x="0" y="0" width="48" height="48" rx="6"></rect>
                    </g>
                    <g id="Player" transform="translate(8.9492, 12.2034)" fill="#FFFFFF">
                        <path d="M26.7349954,12.9823854 C26.7554334,13.0551758 26.6927568,13.1051301 26.5674036,13.2021839 L26.4924641,13.2464291 L26.5169897,13.2992378 C26.5347027,13.3320649 26.5060895,13.3834464 26.4529506,13.4119916 L26.3384976,13.4719367 C26.2853587,13.5004819 26.2294948,13.4947728 26.2131444,13.4605185 L26.1886187,13.4119916 L26.0455525,13.484782 L26.0687155,13.5361635 C26.0837035,13.5718451 26.0537277,13.6217993 25.9992263,13.64749 L25.8834107,13.7045806 C25.8302718,13.7302713 25.7744079,13.723135 25.7580575,13.6874534 L25.7376195,13.6403537 C25.2907078,13.8615795 24.7933824,14.0942234 24.278344,14.3439944 L24.3069572,14.412503 C24.3246702,14.4467574 24.2933319,14.4967116 24.240193,14.5224023 L24.1230149,14.5794929 C24.069876,14.6051836 24.0126495,14.59662 23.9990242,14.5623656 L23.9676858,14.493857 L23.8028191,14.5780656 L23.8341574,14.6480015 C23.8491453,14.6822557 23.8191695,14.73221 23.7646681,14.759328 L23.6488526,14.8149912 C23.5957137,14.840682 23.5398497,14.8335456 23.5248619,14.7992914 L23.4935235,14.73221 C23.2605299,14.8292639 23.0070984,14.8749363 22.820431,14.5081297 C22.741404,14.3397126 22.7373163,13.9529243 22.6841774,13.7459711 C22.6580443,13.6794037 22.6007703,13.6318403 22.532936,13.620372 C20.268402,13.1650751 19.5012946,13.6717535 18.0501944,13.2963833 C17.593745,13.1779204 17.3457635,12.7397506 16.7830364,12.725478 C15.5567544,12.6869419 15.1956825,12.7054963 13.8658479,12.6526876 C13.8086214,12.8539317 13.8004462,12.8981769 13.8004462,12.8981769 L9.12831207,12.8753407 L9.84228063,13.2421473 L10.0684615,15.4087327 C10.0684615,15.4087327 9.87906912,15.4658232 9.82320516,15.4729596 C9.86953138,15.9011385 9.91313254,16.4863164 9.93493308,17.0115492 C9.95537108,17.4811188 9.97989677,17.9735246 9.97444664,18.2860951 C9.97567985,18.4890167 9.92886549,18.689093 9.83819303,18.8684186 C9.74888856,19.024994 9.62967463,19.1605612 9.48802141,19.2666249 C9.44578288,19.299452 9.26456563,19.4279057 9.05609768,19.5520776 C8.84762977,19.6762494 8.59692324,19.8189758 8.47020745,19.8832026 C8.48865989,19.940241 8.51050319,19.9960133 8.53560916,20.0501924 C5.6947227,21.4874464 2.17120596,21.9784249 1.03076378,24.2649004 C0.894510229,24.5303714 0.435335775,24.3919268 0.423072957,24.1079015 C0.423072957,23.9765933 0.423072957,23.7625038 0.423072957,23.6454682 L0.382196892,23.6454682 C0.345408434,23.6454682 0.318157724,23.5926595 0.320882796,23.5298599 L0.320882796,23.3956972 C0.320882796,23.3343249 0.354946182,23.2857979 0.39173464,23.2886525 L0.440785918,23.2886525 C0.45499028,23.1560381 0.479136288,23.0248005 0.513000298,22.896155 L0.46939916,22.8804552 C0.435335775,22.8661825 0.424435491,22.809092 0.443510987,22.7505742 L0.485749589,22.6249751 C0.506187618,22.5664573 0.549788756,22.5307757 0.585214678,22.5421938 L0.627453276,22.559321 C0.830471063,22.0626335 1.22151874,21.8456894 1.4040985,21.3746926 L1.37412271,21.3647018 C1.33733425,21.350429 1.32643397,21.2933385 1.34687201,21.2348208 L1.3891106,21.1077944 C1.40954863,21.0507039 1.45314977,21.013595 1.48857569,21.0264404 L1.51991401,21.0378585 C1.54716472,20.9693499 1.57850303,20.8951322 1.61392895,20.8194872 L1.57577796,20.7937965 C1.54443965,20.7723876 1.54443965,20.7124425 1.57577796,20.661061 L1.64662981,20.5483072 C1.67660559,20.4969258 1.7270194,20.4712351 1.75835771,20.492644 L1.77470812,20.5026349 L1.79105858,20.5026349 C1.80059631,20.5026349 1.8046839,20.5026349 1.81558421,20.492644 C1.83316825,20.4720809 1.85181769,20.4525456 1.87144818,20.4341262 C2.0495149,20.2958007 2.29210326,20.2923511 2.47368883,20.4255625 C2.652181,20.5383163 3.34979913,20.9550773 4.02152915,20.3213724 C5.12927047,19.2808975 6.42504171,17.8650525 7.39925456,17.8165256 C7.13492267,17.2199297 6.67711076,15.9696471 6.62397188,15.5086412 L6.29696338,15.4344234 C6.12664642,15.0519169 5.71243564,13.2764016 5.59525759,11.9433379 C5.59525759,11.9433379 5.45900406,10.5060838 5.58844491,10.0008327 C5.51350546,10.0008327 5.37588938,10.1121593 5.33773839,10.1121593 C5.15924625,9.65543501 5.74649904,5.78327019 6.31195127,4.6557323 L7.19078663,4.28892569 C7.09949677,4.27750758 6.46455522,4.24610782 4.79408672,4.10338149 C3.86211248,4.96830293 2.78434694,5.90030576 2.23797019,6.40698416 C2.14668033,6.47834733 1.98998876,7.03212543 1.98998876,7.03212543 C1.98998876,7.03212543 1.71748165,7.28617826 1.45723738,7.474577 C1.11932858,7.7214935 0.292269551,7.91274677 0.113777406,7.61730329 C0.0715388044,7.54308562 0.0797140168,7.51168583 0.113777406,7.474577 C0.241855737,7.33185067 0.725555829,7.09207048 0.889060085,6.77093628 C0.624728204,6.91366257 0.329058009,7.05638891 0.10015205,7.03212543 C-0.000675575288,7.03212543 -0.0524519221,6.76808174 0.0769889483,6.72098205 C0.428523098,6.56541039 0.706480332,6.49690176 0.913585726,6.19289471 C1.12069111,5.88888765 1.35504722,5.70334345 1.67388052,5.69620712 C1.67388052,5.69620712 3.22717097,3.57101235 4.14279479,2.55622826 C4.39622637,2.27933921 4.86630111,2.37068406 4.86630111,2.37068406 L4.94532818,2.0481226 C4.94532818,2.0481226 8.07915977,1.65705248 9.5452479,2.16373088 C9.50982203,1.23315534 9.90904485,0 11.2974685,0 C12.0114372,0 13.0605894,0.660822826 13.2050182,1.4629447 C13.2472568,1.7112885 13.1123658,1.87542376 13.0387889,2.1865671 C12.9147982,2.66041847 13.0878402,3.18565131 13.0387889,3.34978658 C12.9979128,3.4839493 12.8521215,3.47395843 12.7267683,3.65807539 C12.6152408,3.8392397 12.519043,4.03026836 12.4392733,4.22898064 L12.2498808,4.67428673 L11.2715804,4.60006907 C10.9132336,5.40932725 10.181552,7.05781615 9.92130774,8.69203245 L9.92130774,8.69203245 C10.6897777,8.76196832 14.1724184,9.28862842 14.1724184,9.28862842 L14.2568956,9.58549919 C14.2568956,9.58549919 15.7229838,9.77104335 16.92474,10.3690667 C17.1972471,10.4375752 17.8676145,10.3319578 18.3104386,10.5460473 C18.3404143,10.5260656 18.4139913,10.4489933 18.4466921,10.4275844 C20.0122454,10.9314083 21.3080166,11.792048 22.8163434,12.1745545 C22.8163434,12.1745545 23.5221368,12.3543896 23.759218,12.4029166 C24.159294,12.4839149 24.5638702,12.5382599 24.970512,12.5656246 C25.4555746,12.6055879 25.7226315,12.5970244 26.0755283,12.6198605 C26.3275973,12.6341332 26.6328053,12.5913153 26.7309078,12.9723945 M28.9736412,7.98553719 C27.909087,7.99105578 27.0493738,8.89757173 27.0511245,10.01271 C27.052886,11.1278484 27.9154497,12.0313884 28.9800155,12.0332335 C30.0445812,12.0350674 30.9099859,11.1345133 30.9152542,10.0193871 C30.9152542,8.90219777 30.0510651,7.99631588 28.9845415,7.99552802" id="Shape"></path>
                    </g>
                </g>
            </g>
        </g>
    </g>
</svg>