<?xml version="1.0" encoding="UTF-8"?>
<svg id="Livello_2" data-name="Livello 2" xmlns="http://www.w3.org/2000/svg" viewBox="0 0 455.08 453.11">
  <defs>
    <style>
      .cls-1 {
        fill: none;
      }

      .cls-1, .cls-2, .cls-3 {
        stroke-width: 0px;
      }

      .cls-2 {
        fill: #52ae32;
      }

      .cls-3 {
        fill: #0b0b0b;
      }
    </style>
  </defs>
  <g id="Livello_1-2" data-name="Livello 1">
    <path class="cls-3" d="M194.89,210.38l-7.29,19.92h80.52l-7.28-19.92h-65.95ZM214.88,144.66c-3.6-22.55-10.88-48.91-10.88-48.91,9.56,58.42-6.19,104.96-6.19,104.96h60.06c-27.85-102.33-6.61-194.61-5.79-198.52-4.63-1.04-14.16-2.07-20.41-2.16-.65,87.21,15.15,144.63,15.15,144.63h-6.43C226.42,87.82,225.03,16.29,225.46,0c-11.34.09-20.34,1.91-20.34,1.91l28.88,142.75h-6.39S200.46,10.46,198.99,3.18c-10.78,2.56-17.67,5.83-21.06,7.5,30.75,56.03,43.32,133.98,43.32,133.98h-6.37ZM249.34,115.71c4.49-53.29,26.69-100.95,28.44-105.03-8.21-4.21-17.19-6.51-20.28-7.31-11.54,53.37-8.51,103.91-8.16,112.33"/>
    <path class="cls-2" d="M140.89,123.87c0-28.8,14.08-54.36,35.72-70.2l-5.75-19.53c-29.64,18.86-49.3,52-49.3,89.73,0,39.94,22.04,74.73,54.61,92.9l6.63-18.53c-25.1-15.27-41.91-42.89-41.91-74.36M284.85,34.14l-5.74,19.53c21.63,15.83,35.71,41.4,35.71,70.2,0,31.47-16.8,59.09-41.91,74.36l6.63,18.53c32.57-18.17,54.6-52.96,54.6-92.9,0-37.73-19.66-70.87-49.3-89.73"/>
    <path class="cls-3" d="M154.85,347.79v40.61h11.3v-19.85h9.92c4.88,0,8.85-3.96,8.85-8.84v-1.33h-18.77v-4.83c0-2.45,1.97-4.42,4.42-4.42h18.46v-10.17h-25.34c-4.88,0-8.84,3.96-8.84,8.84M73.9,337.85c-14.54,0-23.92,9.81-23.92,25.83s9.38,25.82,23.92,25.82,23.91-9.81,23.91-25.82-9.38-25.83-23.91-25.83M73.9,379.33c-7.06,0-12.63-5.07-12.63-15.66s5.57-15.67,12.63-15.67,12.63,5.08,12.63,15.67-5.57,15.66-12.63,15.66M134.56,369.71l-15.75-25.7c-1.93-3.15-5.35-5.07-9.05-5.07h-6.27v49.45h11.29v-30.76l16.27,26.54c1.61,2.62,4.47,4.22,7.54,4.22h7.27v-49.45h-11.3v30.76ZM352.73,369.71l-15.75-25.7c-1.93-3.15-5.35-5.07-9.05-5.07h-6.28v49.45h11.3v-30.76l16.27,26.54c1.61,2.62,4.47,4.22,7.54,4.22h7.27v-49.45h-11.3v30.76ZM24.14,348.15c3.97,0,6.95,1.67,8.76,4.87,1.2,2.12,3.62,3.23,6,2.76l6.83-1.34c-2.05-10.59-10.16-16.58-21.52-16.58-13.91,0-24.21,9.81-24.21,25.82s10.17,25.83,23.92,25.83c11.37,0,19.48-6.63,21.8-17.64l-4.22-.83c-3.44-.68-7.01.73-8.96,3.64-1.81,2.72-4.67,4.52-8.62,4.52-7.12,0-12.48-5.58-12.48-15.53s5.64-15.52,12.7-15.52M394.39,348.15c3.97,0,6.95,1.67,8.76,4.87,1.2,2.12,3.61,3.23,6,2.76l6.83-1.34c-2.05-10.59-10.16-16.58-21.52-16.58-13.9,0-24.21,9.81-24.21,25.82s10.17,25.83,23.92,25.83c11.37,0,19.48-6.63,21.8-17.64l-4.22-.83c-3.44-.68-7.01.73-8.96,3.64-1.81,2.72-4.67,4.52-8.62,4.52-7.13,0-12.48-5.58-12.48-15.53s5.64-15.52,12.7-15.52M263.13,373.16c4.42-1.98,10.93-6.35,10.93-16.4,0-7.02-3.13-11.26-5.75-13.59-3.04-2.68-7.03-4.22-10.93-4.22h-23.35v49.45h11.3v-38.33h11.29s.81-.02,1.33.09c1.45.26,4.63,1.42,4.63,6.36,0,3.6-1.4,5.12-6.22,6.8-3.1,1.09-5.32,3.8-5.82,7.27-.39,2.68.42,5.39,2.04,7.56l7.62,10.25h14.1l-11.21-15.09c-.04-.06-.02-.13.04-.15M203.18,368.97v-.42h12.2c4.88,0,8.84-3.96,8.84-8.84v-1.33h-21.04c0-5.11,4.14-9.25,9.25-9.25h13.64v-10.17h-15c-10.6,0-19.18,8.59-19.18,19.19v11.07c0,10.6,8.58,19.19,19.18,19.19h15.57v-10.17h-14.2c-5.11,0-9.25-4.14-9.25-9.26M290.36,368.97v-.42h12.2c4.88,0,8.84-3.96,8.84-8.84v-1.33h-21.04c0-5.11,4.14-9.25,9.25-9.25h13.64v-10.17h-15c-10.59,0-19.18,8.59-19.18,19.19v11.07c0,10.6,8.59,19.19,19.18,19.19h15.57v-10.17h-14.2c-5.11,0-9.25-4.14-9.25-9.26M440.88,378.22c-5.11,0-9.26-4.14-9.26-9.26v-.42h12.21c4.88,0,8.84-3.96,8.84-8.84v-1.33h-21.05c0-5.11,4.15-9.25,9.26-9.25h13.64v-10.17h-15c-10.6,0-19.19,8.59-19.19,19.19v11.07c0,10.6,8.59,19.19,19.19,19.19h15.56v-10.17h-14.19Z"/>
    <path class="cls-3" d="M180.42,302.73c-1.33,1.09-2.89,1.61-4.25,1.45-1.73-.2-2.79-.91-4.52-3.04l-9.94-12.23-5.36,4.36,10.83,13.32c2.3,2.82,4.92,4.33,8.02,4.62.37.03.73.05,1.09.06,3,.02,5.79-1.03,8.48-3.21,3.01-2.46,4.66-5.31,5.04-8.72.35-3.09-.59-5.96-2.89-8.8l-10.83-13.32-5.35,4.36,9.93,12.24c1.73,2.12,2.21,3.3,2.05,5.04-.12,1.37-.96,2.78-2.3,3.87M227.86,305.37c18.81,0,36.15,8.72,46.34,21.4l3.56-4.4c-11.23-13.42-29.62-22.49-49.9-22.49s-38.68,9.07-49.9,22.49l3.56,4.4c10.2-12.68,27.53-21.4,46.34-21.4M156.65,283.48c19.51-16.84,44.8-26.12,71.2-26.12s51.69,9.28,71.2,26.12c2.03,1.75,3.97,3.56,5.83,5.45l3.68-4.54c-1.83-1.83-3.72-3.6-5.71-5.31-20.56-17.75-47.2-27.53-75-27.53s-54.44,9.77-75,27.53c-1.97,1.71-3.88,3.48-5.7,5.31l3.68,4.54c1.85-1.89,3.8-3.7,5.82-5.45M290.7,288.39c.33-1,.57-2.46-1.1-3.75l-1.05-.82c-1.65-1.27-2.96-.73-3.91-.1l-24.72,16,6.46,3.65,15.76-10.19-2.72,9.16-2.39-1.8-4.12,2.96,5.12,3.84-1.19,4.11,5.66,5.19,8.21-28.25ZM217.1,264.21l-17.37,3.53c-.8.16-1.42.56-1.81,1.14-.39.6-.52,1.33-.35,2.12l3.46,17.06c.56,2.77,1.81,4.77,3.69,5.94,1.25.77,2.75,1.15,4.48,1.15.88,0,1.81-.1,2.81-.3l10.85-2.21-1.3-6.43-10.57,2.14c-2.16.44-2.86.2-3.36-2.23l-.37-1.83,12.21-2.48-1.29-6.37-12.22,2.49-.93-4.57,13.36-2.71-1.31-6.44ZM250.87,273.52l10.41,2.69,1.65-6.35-10.7-2.77c-5.87-1.52-9.89.68-11.31,6.19l-4.37,16.87c-.2.78-.12,1.52.24,2.13.36.61.96,1.04,1.74,1.24l3.97,1.03,2.82-10.91,12.04,3.12,1.62-6.28-12.04-3.12.46-1.81c.62-2.39,1.33-2.59,3.47-2.04"/>
    <polygon class="cls-3" points="359.18 407.37 361.8 407.37 361.8 414.53 363.28 414.53 363.28 407.37 365.9 407.37 365.9 406.03 359.18 406.03 359.18 407.37"/>
    <polygon class="cls-3" points="373.65 406.03 371.06 412.82 368.47 406.03 366.88 406.03 366.88 414.53 368.37 414.53 368.37 409.44 370.32 414.53 371.8 414.53 373.75 409.44 373.75 414.53 375.24 414.53 375.24 406.03 373.65 406.03"/>
    <path class="cls-3" d="M148.38,433.95v-.39h11.35c4.54,0,8.22-3.68,8.22-8.22v-1.24h-19.57c0-4.75,3.85-8.6,8.61-8.6h12.68v-9.46h-13.95c-9.85,0-17.85,7.99-17.85,17.85v10.29c0,9.85,7.99,17.84,17.85,17.84h14.47v-9.45h-13.2c-4.75,0-8.6-3.85-8.6-8.61M339.06,442.56c-4.76,0-8.61-3.85-8.61-8.61v-.39h11.35c4.54,0,8.22-3.68,8.22-8.22v-1.24h-19.57c0-4.75,3.85-8.6,8.61-8.6h12.68v-9.46h-13.95c-9.85,0-17.84,7.99-17.84,17.85v10.29c0,9.85,7.99,17.84,17.84,17.84h14.48v-9.45h-13.2ZM113.97,439.6v-33.57h-10.51v37.71c0,4.57,3.71,8.27,8.27,8.27h23.23v-9.46h-18.04c-1.63,0-2.95-1.32-2.95-2.95M302.56,433.68c0,6.17-3.16,9.98-8.94,9.98s-8.94-3.81-8.94-9.98v-27.65h-10.51v28.24c0,12.8,8.87,18.85,19.45,18.85s19.45-6.04,19.45-18.85v-28.24h-10.51v27.65ZM263.72,427.38h-19.81v1.69c0,3.64,2.96,6.6,6.6,6.6h7.73v.86c0,1.81-.89,3.52-2.38,4.55-2.19,1.49-5,2.49-8.23,2.49-8.02,0-14.07-4.71-14.07-14.46s6.57-14.47,12.87-14.47c5.77,0,9.49,2.79,11.01,7.96l10.15-2.98c-2.39-8.7-9.15-14.53-21.03-14.53-12.73,0-23.62,9.16-23.62,24.02s10.75,24.01,23.75,24.01c6.23,0,11-1.52,14.93-4.15,4.13-2.77,6.5-7.51,6.5-12.48v-4.71c0-2.43-1.97-4.4-4.4-4.4M192.32,406.03l-18.65,45.98h11.88l12.36-32.31,6.31,16.54h-9.47c0,5.23,4.24,9.45,9.46,9.45h3.64l2.41,6.32h11.88l-18.65-45.98h-11.17Z"/>
    <rect class="cls-1" x="0" width="455.08" height="453.11"/>
  </g>
</svg>
